<?xml version="1.0" standalone="no"?>
<!DOCTYPE svg PUBLIC "-//W3C//DTD SVG 20010904//EN"
 "http://www.w3.org/TR/2001/REC-SVG-20010904/DTD/svg10.dtd">
<svg version="1.0" xmlns="http://www.w3.org/2000/svg" viewBox="0 0 240.000000 240.000000"
 preserveAspectRatio="xMidYMid meet">

<g transform="translate(0.000000,240.000000) scale(0.100000,-0.100000)" stroke="none">
<path d="M532 2189 c-46 -13 -109 -79 -122 -128 -7 -27 -10 -305 -8 -883 l3
-843 24 -38 c13 -21 42 -50 64 -65 l41 -27 666 0 666 0 41 27 c22 15 51 44 64
65 l24 38 3 635 3 634 -298 298 -298 298 -420 -1 c-232 0 -435 -5 -453 -10z
m717 -703 c41 -22 51 -55 51 -176 l0 -110 110 0 c121 0 154 -10 176 -51 27
-52 8 -115 -41 -137 -15 -7 -72 -12 -135 -12 l-110 0 0 -110 c0 -123 -11 -158
-55 -178 -33 -15 -57 -15 -90 0 -44 20 -55 55 -55 178 l0 110 -110 0 c-121 0
-154 10 -176 51 -18 35 -18 63 0 98 22 41 55 51 176 51 l110 0 0 113 c1 120 9
150 51 173 31 17 64 17 98 0z"/>
</g>
</svg>
