<?xml version="1.0" standalone="no"?>
<!DOCTYPE svg PUBLIC "-//W3C//DTD SVG 20010904//EN"
 "http://www.w3.org/TR/2001/REC-SVG-20010904/DTD/svg10.dtd">
<svg version="1.0" xmlns="http://www.w3.org/2000/svg" viewBox="0 0 240.000000 240.000000"
 preserveAspectRatio="xMidYMid meet">

<g transform="translate(0.000000,240.000000) scale(0.100000,-0.100000)" stroke="none">
<path d="M332 1989 c-46 -14 -109 -79 -122 -128 -7 -27 -10 -246 -8 -684 l3
-643 27 -41 c15 -22 44 -51 65 -64 l38 -24 436 -3 437 -3 -5 66 c-7 83 12 202
44 285 106 267 372 450 654 450 72 0 193 -24 255 -50 l45 -20 -3 268 c-3 261
-4 268 -27 305 -13 21 -42 50 -64 65 l-40 27 -421 5 c-335 4 -426 8 -446 19
-14 8 -56 43 -94 79 -111 104 -102 102 -446 101 -162 0 -310 -5 -328 -10z"/>
<path d="M1788 984 c-237 -57 -404 -283 -384 -521 20 -249 213 -440 465 -460
143 -11 276 40 382 146 171 171 196 425 62 629 -111 168 -330 254 -525 206z
m161 -198 c36 -19 51 -55 51 -126 l0 -60 60 0 c71 0 107 -15 126 -51 27 -52 8
-115 -41 -137 -14 -7 -53 -12 -85 -12 l-60 0 0 -60 c0 -70 -17 -111 -55 -128
-44 -20 -75 -14 -111 22 -32 32 -34 38 -34 100 l0 66 -66 0 c-62 0 -68 2 -100
34 -46 46 -46 86 0 132 32 32 38 34 100 34 l66 0 0 66 c0 62 2 68 34 100 37
37 70 43 115 20z"/>
</g>
</svg>
