<?xml version="1.0" standalone="no"?>
<!DOCTYPE svg PUBLIC "-//W3C//DTD SVG 20010904//EN"
 "http://www.w3.org/TR/2001/REC-SVG-20010904/DTD/svg10.dtd">
<svg version="1.0" xmlns="http://www.w3.org/2000/svg" viewBox="0 0 300.000000 300.000000"
 preserveAspectRatio="xMidYMid meet">

<g transform="translate(0.000000,300.000000) scale(0.100000,-0.100000)" stroke="none">
<path d="M632 2789 c-46 -13 -109 -79 -122 -128 -7 -27 -10 -394 -8 -1183 l3
-1143 24 -38 c13 -21 42 -50 64 -65 l41 -27 457 -3 457 -3 -49 98 c-73 146
-92 227 -92 403 -1 173 17 253 88 397 115 233 329 408 580 474 86 23 273 31
373 16 l52 -8 0 246 c0 160 -4 254 -11 268 -16 31 -658 675 -691 693 -23 12
-118 14 -580 13 -316 0 -567 -5 -586 -10z m1411 -787 c-179 -2 -267 1 -286 9
-53 22 -57 43 -57 331 l0 263 300 -300 300 -300 -257 -3z"/>
<path d="M2155 1384 c-109 -21 -243 -92 -331 -176 -181 -172 -256 -400 -210
-641 62 -322 359 -567 686 -567 262 0 508 155 624 392 113 231 99 474 -40 688
-156 242 -441 361 -729 304z m194 -298 c41 -22 51 -55 51 -176 l0 -110 110 0
c121 0 154 -10 176 -51 27 -52 8 -115 -41 -137 -15 -7 -72 -12 -135 -12 l-110
0 0 -110 c0 -123 -11 -158 -55 -178 -33 -15 -57 -15 -90 0 -44 20 -55 55 -55
178 l0 110 -110 0 c-121 0 -154 10 -176 51 -27 52 -8 115 41 137 15 7 72 12
135 12 l110 0 0 113 c1 120 9 150 51 173 31 17 64 17 98 0z"/>
</g>
</svg>
