<?xml version="1.0" standalone="no"?>
<!DOCTYPE svg PUBLIC "-//W3C//DTD SVG 20010904//EN"
 "http://www.w3.org/TR/2001/REC-SVG-20010904/DTD/svg10.dtd">
<svg version="1.0" xmlns="http://www.w3.org/2000/svg" viewBox="0 0 240.000000 240.000000"
 preserveAspectRatio="xMidYMid meet">

<g transform="translate(0.000000,240.000000) scale(0.100000,-0.100000)" stroke="none">
<path d="M1036 2085 c-407 -85 -695 -404 -732 -810 l-7 -75 102 0 101 0 0 29
c0 74 32 190 76 281 39 79 62 110 133 181 71 71 102 94 181 133 206 101 411
101 618 0 67 -33 113 -64 163 -111 l70 -67 -123 -123 -123 -123 303 0 302 0 0
302 0 303 -109 -109 -109 -109 -54 53 c-111 110 -255 192 -406 231 -102 27
-292 34 -386 14z"/>
<path d="M1900 1170 c0 -70 -33 -189 -77 -280 -38 -79 -60 -109 -132 -181 -72
-72 -102 -94 -181 -132 -269 -131 -569 -88 -781 112 l-74 70 120 120 120 121
-298 0 -297 0 0 -299 0 -298 102 103 c56 57 106 104 110 104 5 0 31 -22 58
-49 107 -107 255 -191 408 -233 111 -31 334 -30 447 1 372 101 636 415 671
796 l7 75 -102 0 -101 0 0 -30z"/>
</g>
</svg>
