<svg t="1577783108243" class="icon" viewBox="0 0 1024 1024" version="1.1" xmlns="http://www.w3.org/2000/svg" p-id="3571" width="48" height="48"><path d="M637.194862 113.714901l0 189.396581 182.346001 0L649.150148 113.714901 637.194862 113.714901zM816.682769 896.959605c6.27696-6.275937 10.255575-14.8318 10.255575-24.52865L826.938344 355.018689l-195.461717 0 0 0c-12.534478 0-24.489764-5.13802-32.467459-13.693884l0 0c-8.555863-7.985882-13.674441-19.391652-13.674441-32.515554L585.334727 113.714901 229.169935 113.714901l0 0c-9.685593 0-18.232247 3.418866-24.498974 9.69685-6.26775 6.27696-9.69685 14.832823-9.69685 24.529673l0 0 0 724.489532 0 0c0 9.69685 3.429099 18.252713 9.69685 24.52865 6.26775 6.277984 14.813381 10.276041 24.498974 10.276041l0 0 563.02307 0 0 0C801.868365 907.235646 810.425252 903.236566 816.682769 896.959605L816.682769 896.959605zM229.169935 61.798485l442.211541 0 2.838651 0 1.719154 1.708921L876.518552 284.850583l1.720178 1.719154 0 2.278903 0 583.583338c0 23.968901-9.69685 45.639456-25.071002 61.051471l0 0c-15.392572 15.393595-37.044708 25.090445-60.974723 25.090445l0 0-563.02307 0 0 0c-23.360034 0-45.02138-9.69685-60.974723-25.090445-15.383362-15.413038-25.069979-37.08257-25.069979-61.051471L143.125233 147.941424c0-23.38971 9.686616-45.070498 25.069979-61.043285C184.148555 71.494311 205.809901 61.798485 229.169935 61.798485L229.169935 61.798485z" p-id="3572"></path></svg>