<?xml version="1.0" standalone="no"?>
<!DOCTYPE svg PUBLIC "-//W3C//DTD SVG 20010904//EN"
 "http://www.w3.org/TR/2001/REC-SVG-20010904/DTD/svg10.dtd">
<svg version="1.0" xmlns="http://www.w3.org/2000/svg" viewBox="0 0 240.000000 240.000000"
 preserveAspectRatio="xMidYMid meet">

<g transform="translate(0.000000,240.000000) scale(0.100000,-0.100000)" stroke="none">
<path d="M332 1989 c-46 -14 -109 -79 -122 -128 -7 -27 -10 -246 -8 -684 l3
-643 27 -41 c15 -22 44 -51 65 -64 l38 -24 866 0 865 0 41 27 c22 15 51 44 64
65 l24 38 0 565 0 565 -24 38 c-13 21 -42 50 -64 65 l-40 27 -421 5 c-335 4
-426 8 -446 19 -14 8 -56 43 -94 79 -111 104 -102 102 -446 101 -162 0 -310
-5 -328 -10z m917 -603 c41 -22 51 -55 51 -176 l0 -110 85 0 c78 0 88 -2 110
-25 16 -16 25 -35 25 -57 0 -28 -18 -50 -143 -175 -188 -188 -166 -188 -354 0
-125 125 -143 147 -143 175 0 22 9 41 25 57 22 23 32 25 110 25 l85 0 0 113
c1 120 9 150 51 173 31 17 64 17 98 0z"/>
</g>
</svg>
