<?xml version="1.0" standalone="no"?>
<!DOCTYPE svg PUBLIC "-//W3C//DTD SVG 20010904//EN"
 "http://www.w3.org/TR/2001/REC-SVG-20010904/DTD/svg10.dtd">
<svg version="1.0" xmlns="http://www.w3.org/2000/svg" viewBox="0 0 240.000000 240.000000"
 preserveAspectRatio="xMidYMid meet">

<g transform="translate(0.000000,240.000000) scale(0.100000,-0.100000)" stroke="none">
<path d="M532 2189 c-46 -13 -109 -79 -122 -128 -7 -27 -10 -305 -8 -883 l3
-843 24 -38 c13 -21 42 -50 64 -65 l41 -27 590 -3 591 -2 -207 207 -208 208 0
243 0 242 242 0 243 0 107 -107 108 -108 0 360 0 360 -298 298 -297 297 -420
-1 c-232 0 -435 -5 -453 -10z"/>
<path d="M1500 803 l1 -98 255 -260 255 -259 102 102 102 102 -255 255 -255
255 -102 0 -103 0 0 -97z"/>
<path d="M2187 212 l-97 -97 59 -59 c48 -48 64 -58 83 -53 33 9 168 150 168
175 0 19 -93 132 -109 132 -3 0 -50 -44 -104 -98z"/>
</g>
</svg>
