<svg t="1578026809212" class="icon" viewBox="0 0 1024 1024" version="1.1" xmlns="http://www.w3.org/2000/svg" p-id="2716" width="48" height="48"><path d="M512.064 963.296c-96.16 0-189.344-30.816-267.68-89.472-95.744-71.712-157.856-176.48-174.848-294.912C52.544 460.448 82.688 342.464 154.4 246.688c148.096-197.76 429.44-238.08 627.136-90.08 82.88 62.08 142.016 151.584 166.56 252 4.192 17.184-6.336 34.496-23.488 38.688-17.152 4.064-34.496-6.304-38.688-23.488-20.992-86.048-71.68-162.752-142.752-215.968-169.376-126.88-410.56-92.288-537.536 77.216-61.472 82.08-87.296 183.2-72.704 284.736 14.56 101.536 67.808 191.296 149.888 252.736 169.536 127.04 410.688 92.384 537.6-77.12 33.216-44.384 56-94.112 67.648-147.84 3.776-17.28 20.896-28.256 38.048-24.512 17.28 3.744 28.256 20.8 24.512 38.048-13.664 62.784-40.224 120.832-78.976 172.672-71.712 95.744-176.48 157.888-294.976 174.848a449.402 449.402 0 0 1-64.608 4.672z" p-id="2717"></path></svg>