<svg t="1577846994910" class="icon" viewBox="0 0 1024 1024" version="1.1" xmlns="http://www.w3.org/2000/svg" p-id="2262" width="48" height="48"><path d="M402.288 786.272l0-402.272q0-8-5.152-13.152t-13.152-5.152l-36.576 0q-8 0-13.152 5.152t-5.152 13.152l0 402.272q0 8 5.152 13.152t13.152 5.152l36.576 0q8 0 13.152-5.152t5.152-13.152zM548.56 786.272l0-402.272q0-8-5.152-13.152t-13.152-5.152l-36.576 0q-8 0-13.152 5.152t-5.152 13.152l0 402.272q0 8 5.152 13.152t13.152 5.152l36.576 0q8 0 13.152-5.152t5.152-13.152zM694.864 786.272l0-402.272q0-8-5.152-13.152t-13.152-5.152l-36.576 0q-8 0-13.152 5.152t-5.152 13.152l0 402.272q0 8 5.152 13.152t13.152 5.152l36.576 0q8 0 13.152-5.152t5.152-13.152zM383.984 219.424l256 0-27.424-66.848q-4-5.152-9.728-6.272l-181.152 0q-5.728 1.152-9.728 6.272zM914.288 237.728l0 36.576q0 8-5.152 13.152t-13.152 5.152l-54.848 0 0 541.728q0 47.424-26.848 82.016t-64.576 34.56l-475.424 0q-37.728 0-64.576-33.44t-26.848-80.864l0-544-54.848 0q-8 0-13.152-5.152t-5.152-13.152l0-36.576q0-8 5.152-13.152t13.152-5.152l176.576 0 40-95.424q8.576-21.152 30.848-36t45.152-14.848l182.848 0q22.848 0 45.152 14.848t30.848 36l40 95.424 176.576 0q8 0 13.152 5.152t5.152 13.152z" p-id="2263"></path></svg>